<svg width="892" height="835" viewBox="0 0 892 835" fill="none" xmlns="http://www.w3.org/2000/svg">
<path d="M435 208.527V359.337L159 165.084V19.8597L435 208.527Z" fill="#BD00FF"/>
<path d="M455 188.667V339.477L179 145.224V0L455 188.667Z" fill="#00FFA3"/>
<path d="M445 197.356V348.166L169 153.913V8.68866L445 197.356Z" fill="black"/>
<path d="M435 375.473V224.663L159 418.916V564.14L435 375.473Z" fill="#BD00FF"/>
<path d="M455 395.333V244.523L179 438.776V584L455 395.333Z" fill="#00FFA3"/>
<path d="M445 386.644V235.834L169 430.087V575.311L445 386.644Z" fill="black"/>
<path d="M478 375.473V224.663L754 418.916V564.14L478 375.473Z" fill="#BD00FF"/>
<path d="M458 395.333V244.523L734 438.776V584L458 395.333Z" fill="#00FFA3"/>
<path d="M468 386.644V235.834L744 430.087V575.311L468 386.644Z" fill="black"/>
<path d="M478 208.527V359.337L754 165.084V19.8597L478 208.527Z" fill="#BD00FF"/>
<path d="M458 188.667V339.477L734 145.224V0L458 188.667Z" fill="#00FFA3"/>
<path d="M468 197.356V348.166L744 153.913V8.68866L468 197.356Z" fill="black"/>
<path d="M218.359 692.227L182.031 835H147.559L128.223 760C127.832 758.568 127.311 756.387 126.66 753.457C126.009 750.527 125.326 747.337 124.609 743.887C123.893 740.371 123.242 737.083 122.656 734.023C122.135 730.898 121.777 728.424 121.582 726.602C121.387 728.424 120.996 730.866 120.41 733.926C119.889 736.986 119.271 740.241 118.555 743.691C117.904 747.142 117.253 750.365 116.602 753.359C115.951 756.354 115.43 758.633 115.039 760.195L95.8008 835H61.4258L25 692.227H54.7852L73.0469 770.156C73.5677 772.5 74.1536 775.299 74.8047 778.555C75.5208 781.81 76.2044 785.228 76.8555 788.809C77.5716 792.324 78.1901 795.742 78.7109 799.062C79.2969 802.318 79.7201 805.15 79.9805 807.559C80.306 805.085 80.7292 802.22 81.25 798.965C81.7708 795.645 82.3242 792.292 82.9102 788.906C83.5612 785.456 84.2122 782.266 84.8633 779.336C85.5143 776.406 86.1003 774.03 86.6211 772.207L107.422 692.227H136.035L156.836 772.207C157.292 773.965 157.812 776.341 158.398 779.336C159.049 782.266 159.701 785.456 160.352 788.906C161.003 792.357 161.589 795.742 162.109 799.062C162.695 802.318 163.118 805.15 163.379 807.559C163.835 804.303 164.453 800.365 165.234 795.742C166.081 791.055 166.96 786.4 167.871 781.777C168.848 777.155 169.694 773.281 170.41 770.156L188.574 692.227H218.359Z" fill="#00FFA3"/>
<path d="M343.73 835L333.379 801.016H281.328L270.977 835H238.359L288.75 691.641H325.762L376.348 835H343.73ZM326.152 775.625L315.801 742.422C315.15 740.208 314.271 737.376 313.164 733.926C312.122 730.41 311.048 726.862 309.941 723.281C308.9 719.635 308.053 716.478 307.402 713.809C306.751 716.478 305.84 719.798 304.668 723.77C303.561 727.676 302.487 731.387 301.445 734.902C300.404 738.418 299.655 740.924 299.199 742.422L288.945 775.625H326.152Z" fill="#00FFA3"/>
<path d="M507.48 835H401.23V815.371L469.688 717.227H403.086V692.227H505.625V711.758L437.266 810H507.48V835Z" fill="#00FFA3"/>
<path d="M637.637 835L627.285 801.016H575.234L564.883 835H532.266L582.656 691.641H619.668L670.254 835H637.637ZM620.059 775.625L609.707 742.422C609.056 740.208 608.177 737.376 607.07 733.926C606.029 730.41 604.954 726.862 603.848 723.281C602.806 719.635 601.96 716.478 601.309 713.809C600.658 716.478 599.746 719.798 598.574 723.77C597.467 727.676 596.393 731.387 595.352 734.902C594.31 738.418 593.561 740.924 593.105 742.422L582.852 775.625H620.059Z" fill="#00FFA3"/>
<path d="M823.164 835H788.789L751.387 774.844L738.594 784.023V835H708.32V692.227H738.594V757.559C740.612 754.759 742.598 751.96 744.551 749.16C746.504 746.361 748.49 743.561 750.508 740.762L789.18 692.227H822.773L772.969 755.41L823.164 835Z" fill="#00FFA3"/>
<path d="M861.133 835V692.227H891.406V835H861.133Z" fill="#00FFA3"/>
<path d="M193.359 692.227L157.031 835H122.559L103.223 760C102.832 758.568 102.311 756.387 101.66 753.457C101.009 750.527 100.326 747.337 99.6094 743.887C98.8932 740.371 98.2422 737.083 97.6562 734.023C97.1354 730.898 96.7773 728.424 96.582 726.602C96.3867 728.424 95.9961 730.866 95.4102 733.926C94.8893 736.986 94.2708 740.241 93.5547 743.691C92.9036 747.142 92.2526 750.365 91.6016 753.359C90.9505 756.354 90.4297 758.633 90.0391 760.195L70.8008 835H36.4258L0 692.227H29.7852L48.0469 770.156C48.5677 772.5 49.1536 775.299 49.8047 778.555C50.5208 781.81 51.2044 785.228 51.8555 788.809C52.5716 792.324 53.1901 795.742 53.7109 799.062C54.2969 802.318 54.7201 805.15 54.9805 807.559C55.306 805.085 55.7292 802.22 56.25 798.965C56.7708 795.645 57.3242 792.292 57.9102 788.906C58.5612 785.456 59.2122 782.266 59.8633 779.336C60.5143 776.406 61.1003 774.03 61.6211 772.207L82.4219 692.227H111.035L131.836 772.207C132.292 773.965 132.812 776.341 133.398 779.336C134.049 782.266 134.701 785.456 135.352 788.906C136.003 792.357 136.589 795.742 137.109 799.062C137.695 802.318 138.118 805.15 138.379 807.559C138.835 804.303 139.453 800.365 140.234 795.742C141.081 791.055 141.96 786.4 142.871 781.777C143.848 777.155 144.694 773.281 145.41 770.156L163.574 692.227H193.359Z" fill="#BD00FF"/>
<path d="M318.73 835L308.379 801.016H256.328L245.977 835H213.359L263.75 691.641H300.762L351.348 835H318.73ZM301.152 775.625L290.801 742.422C290.15 740.208 289.271 737.376 288.164 733.926C287.122 730.41 286.048 726.862 284.941 723.281C283.9 719.635 283.053 716.478 282.402 713.809C281.751 716.478 280.84 719.798 279.668 723.77C278.561 727.676 277.487 731.387 276.445 734.902C275.404 738.418 274.655 740.924 274.199 742.422L263.945 775.625H301.152Z" fill="#BD00FF"/>
<path d="M482.48 835H376.23V815.371L444.688 717.227H378.086V692.227H480.625V711.758L412.266 810H482.48V835Z" fill="#BD00FF"/>
<path d="M612.637 835L602.285 801.016H550.234L539.883 835H507.266L557.656 691.641H594.668L645.254 835H612.637ZM595.059 775.625L584.707 742.422C584.056 740.208 583.177 737.376 582.07 733.926C581.029 730.41 579.954 726.862 578.848 723.281C577.806 719.635 576.96 716.478 576.309 713.809C575.658 716.478 574.746 719.798 573.574 723.77C572.467 727.676 571.393 731.387 570.352 734.902C569.31 738.418 568.561 740.924 568.105 742.422L557.852 775.625H595.059Z" fill="#BD00FF"/>
<path d="M798.164 835H763.789L726.387 774.844L713.594 784.023V835H683.32V692.227H713.594V757.559C715.612 754.759 717.598 751.96 719.551 749.16C721.504 746.361 723.49 743.561 725.508 740.762L764.18 692.227H797.773L747.969 755.41L798.164 835Z" fill="#BD00FF"/>
<path d="M836.133 835V692.227H866.406V835H836.133Z" fill="#BD00FF"/>
<path d="M205.359 691.227L169.031 834H134.559L115.223 759C114.832 757.568 114.311 755.387 113.66 752.457C113.009 749.527 112.326 746.337 111.609 742.887C110.893 739.371 110.242 736.083 109.656 733.023C109.135 729.898 108.777 727.424 108.582 725.602C108.387 727.424 107.996 729.866 107.41 732.926C106.889 735.986 106.271 739.241 105.555 742.691C104.904 746.142 104.253 749.365 103.602 752.359C102.951 755.354 102.43 757.633 102.039 759.195L82.8008 834H48.4258L12 691.227H41.7852L60.0469 769.156C60.5677 771.5 61.1536 774.299 61.8047 777.555C62.5208 780.81 63.2044 784.228 63.8555 787.809C64.5716 791.324 65.1901 794.742 65.7109 798.062C66.2969 801.318 66.7201 804.15 66.9805 806.559C67.306 804.085 67.7292 801.22 68.25 797.965C68.7708 794.645 69.3242 791.292 69.9102 787.906C70.5612 784.456 71.2122 781.266 71.8633 778.336C72.5143 775.406 73.1003 773.03 73.6211 771.207L94.4219 691.227H123.035L143.836 771.207C144.292 772.965 144.812 775.341 145.398 778.336C146.049 781.266 146.701 784.456 147.352 787.906C148.003 791.357 148.589 794.742 149.109 798.062C149.695 801.318 150.118 804.15 150.379 806.559C150.835 803.303 151.453 799.365 152.234 794.742C153.081 790.055 153.96 785.4 154.871 780.777C155.848 776.155 156.694 772.281 157.41 769.156L175.574 691.227H205.359Z" fill="black"/>
<path d="M330.73 834L320.379 800.016H268.328L257.977 834H225.359L275.75 690.641H312.762L363.348 834H330.73ZM313.152 774.625L302.801 741.422C302.15 739.208 301.271 736.376 300.164 732.926C299.122 729.41 298.048 725.862 296.941 722.281C295.9 718.635 295.053 715.478 294.402 712.809C293.751 715.478 292.84 718.798 291.668 722.77C290.561 726.676 289.487 730.387 288.445 733.902C287.404 737.418 286.655 739.924 286.199 741.422L275.945 774.625H313.152Z" fill="black"/>
<path d="M494.48 834H388.23V814.371L456.688 716.227H390.086V691.227H492.625V710.758L424.266 809H494.48V834Z" fill="black"/>
<path d="M624.637 834L614.285 800.016H562.234L551.883 834H519.266L569.656 690.641H606.668L657.254 834H624.637ZM607.059 774.625L596.707 741.422C596.056 739.208 595.177 736.376 594.07 732.926C593.029 729.41 591.954 725.862 590.848 722.281C589.806 718.635 588.96 715.478 588.309 712.809C587.658 715.478 586.746 718.798 585.574 722.77C584.467 726.676 583.393 730.387 582.352 733.902C581.31 737.418 580.561 739.924 580.105 741.422L569.852 774.625H607.059Z" fill="black"/>
<path d="M810.164 834H775.789L738.387 773.844L725.594 783.023V834H695.32V691.227H725.594V756.559C727.612 753.759 729.598 750.96 731.551 748.16C733.504 745.361 735.49 742.561 737.508 739.762L776.18 691.227H809.773L759.969 754.41L810.164 834Z" fill="black"/>
<path d="M848.133 834V691.227H878.406V834H848.133Z" fill="black"/>
</svg>
